<svg version="1.1" xmlns="http://www.w3.org/2000/svg" style="display: block;" viewBox="0 0 2048 2048" width="1024" height="1024" preserveAspectRatio="none">
<path transform="translate(0,0)" fill="rgb(56,66,87)" d="M 1003.58 174.453 C 1480.77 160.694 1878.92 536.058 1893.28 1013.23 C 1907.64 1490.41 1532.77 1889.03 1055.62 1903.98 C 577.616 1918.97 178.131 1543.29 163.748 1065.27 C 149.365 587.25 525.541 188.236 1003.58 174.453 z M 1050.59 1880.71 C 1515.14 1868.51 1881.97 1482.3 1870.27 1017.74 C 1858.56 553.189 1472.73 185.942 1008.16 197.161 C 542.901 208.396 174.985 594.929 186.711 1060.18 C 198.438 1525.42 585.359 1892.93 1050.59 1880.71 z"/>
<path transform="translate(0,0)" fill="rgb(56,66,87)" d="M 1027 547.995 L 1028.04 548.352 C 1037.64 551.728 1047.6 556.845 1057.23 560.672 C 1081.07 570.153 1105.19 580.353 1129.41 588.799 C 1199.71 613.304 1273.29 628.026 1346.68 639.523 C 1349.54 662.842 1350.12 701.307 1350.46 725.397 C 1352.07 837.289 1342.14 973.586 1271.31 1065.47 C 1267.01 1071.05 1258.63 1080.56 1255.75 1086.24 C 1272.5 1139.05 1239.57 1149.19 1220.56 1189.32 C 1203.38 1185.63 1189.31 1181.59 1172.48 1177.25 C 1172.89 1172.23 1173.4 1169.56 1174.45 1164.61 L 1173.55 1165.07 C 1140.39 1182.28 1097.73 1221.21 1058.07 1225.29 C 1054.82 1225.62 1041.28 1222.14 1036.8 1221.29 L 1028.14 1220.91 L 1019.24 1221.02 C 1008.9 1222.77 1003.71 1224.63 993.873 1228.21 C 967.036 1216.2 941.105 1202.25 916.285 1186.49 C 904.621 1178.98 887.991 1166.15 876.802 1159.87 C 878.226 1165.04 879.736 1172.68 881.214 1177.27 C 871.734 1179.82 848.751 1188.95 839.702 1193.79 C 813.159 1151.87 786.841 1140.31 799.259 1085.67 L 798.248 1084.02 C 793.17 1075.89 785.35 1067.83 779.774 1059.85 C 697.925 942.664 702.448 774.413 708.962 640.278 C 717.312 637.691 728.446 636.447 737.188 634.957 C 818.622 621.078 899.068 598.695 975.912 568.369 C 992.558 561.8 1010.91 555.526 1027 547.995 z"/>
<path transform="translate(0,0)" fill="rgb(254,254,254)" d="M 945.962 772.748 C 944.936 740.307 944.772 708.94 968.335 683.666 C 984.465 666.365 1004.77 660.419 1027.75 659.514 C 1100.88 664.942 1108.59 709.88 1109.46 773.166 C 1139.52 782.51 1144.4 791.63 1142.84 823.247 C 1142.53 827.46 1142.04 832.367 1141.96 836.528 C 1142.11 845.301 1141.65 851.046 1140.82 859.842 C 1140.19 868.912 1139.26 881.522 1140.86 890.508 L 1141.04 897.408 C 1141.19 901.361 1141.22 907.218 1141.61 910.996 C 1142.06 919.353 1142.02 924.948 1141.66 933.335 C 1141.13 936.44 1140.09 941.979 1139.16 944.885 C 1121.3 965.823 1102.88 965.747 1077.11 962.82 L 1067.13 962.859 C 1055.19 963.107 1043.25 963.086 1031.31 962.794 L 1024 962.794 C 1012 963.124 1000 963.162 988.003 962.909 L 978.14 962.969 C 953.378 964.897 931.11 966.648 916.288 943.12 C 915.453 939.977 914.847 936.599 914.201 933.392 L 913.86 927.331 C 914.285 918.71 913.968 907.197 913.978 898.346 L 914.2 897.436 C 915.505 892.084 915.035 866.634 914.982 859.907 C 914.854 851.339 915.291 836.984 914.119 829.116 C 913.677 824.725 913.531 820.306 913.321 815.895 C 911.103 787.154 921.098 782.092 945.962 772.748 z"/>
<path transform="translate(0,0)" fill="rgb(101,156,82)" d="M 983.65 782.462 C 1009 781.999 1104.79 778.039 1122.18 789.661 C 1126.89 792.803 1129.09 800.456 1130.24 805.649 C 1134.58 825.347 1136.23 931.444 1125.77 944.679 C 1116.75 956.1 1088.53 953.921 1075.18 954.034 C 1050.77 954.014 947.58 957.634 932.539 947.592 C 926.81 943.767 924.989 931.628 924.443 925.198 C 922.935 907.448 921.462 800.593 931.071 790.427 C 940.6 780.346 970.918 782.742 983.65 782.462 z"/>
<path transform="translate(0,0)" fill="rgb(56,66,87)" d="M 1022.97 822.058 C 1035.2 821.292 1048.19 824.217 1051.96 837.705 C 1055.69 850.997 1048.77 862.037 1042.33 873.052 C 1044.99 887.767 1048.02 902.415 1051.41 916.98 L 1033.5 917.003 L 1004.09 916.963 C 1007.8 900.248 1010.4 887.331 1011.98 870.288 C 998.002 849.62 999.711 833.988 1022.97 822.058 z"/>
<path transform="translate(0,0)" fill="rgb(46,113,160)" d="M 972.403 773.668 C 971.547 730.136 971.886 688.519 1027.25 684.868 C 1084.89 692.239 1082.43 725.983 1082.21 773.137 C 1069.6 773.177 1053.76 773.704 1041.44 773.252 C 1026.71 774.813 988.53 773.704 972.403 773.668 z"/>
<path transform="translate(0,0)" fill="rgb(56,66,87)" d="M 1027.25 684.868 C 1084.89 692.239 1082.43 725.983 1082.21 773.137 C 1069.6 773.177 1053.76 773.704 1041.44 773.252 C 1037.44 772.879 1032.01 772.948 1027.88 772.877 L 1027.25 684.868 z"/>
<path transform="translate(0,0)" fill="rgb(46,113,160)" d="M 856.828 905.23 C 874.594 904.544 895.013 905.039 912.972 905.057 C 912.954 912.978 912.771 919.493 913.86 927.331 L 914.201 933.392 C 914.847 936.599 915.453 939.977 916.288 943.12 C 931.11 966.648 953.378 964.897 978.14 962.969 L 988.003 962.909 C 1000 963.162 1012 963.124 1024 962.794 L 1031.31 962.794 C 1031.23 1021.79 1029.76 1088.59 1031.78 1147.25 C 1043.41 1158.34 1049.32 1172.91 1029.57 1179.2 C 1029.36 1188.82 1028.9 1199.5 1029 1209.04 L 1028.07 1209.32 C 1012.29 1205.2 979.878 1188.92 964.827 1180.88 C 888.737 1140.21 819.033 1080.11 779.094 1002.57 C 770.52 985.93 763.768 964.826 758.409 946.766 C 819.788 946.76 813.175 944.87 856.828 905.23 z"/>
<path transform="translate(0,0)" fill="rgb(142,201,243)" d="M 978.14 962.969 L 988.003 962.909 C 986.766 1010.24 987.924 1062.78 987.828 1110.59 C 982.095 1118.77 975.838 1124.62 968.598 1131.43 C 968.607 1138.52 968.975 1145.83 964.684 1151.84 C 956.16 1163.76 937.266 1154.8 936.817 1141.52 C 936.685 1137.64 937.83 1133.89 940.688 1131.21 C 946.649 1125.63 953.02 1125.8 960.558 1125.77 C 967.771 1120.22 972.957 1115.3 978.354 1107.92 C 978.529 1059.6 978.458 1011.28 978.14 962.969 z"/>
<path transform="translate(0,0)" fill="rgb(46,113,160)" d="M 950.392 1134.24 C 954.323 1133.06 958.469 1135.29 959.665 1139.21 C 960.86 1143.14 958.654 1147.29 954.731 1148.5 C 950.787 1149.72 946.607 1147.5 945.405 1143.55 C 944.204 1139.6 946.439 1135.43 950.392 1134.24 z"/>
<path transform="translate(0,0)" fill="rgb(142,201,243)" d="M 1024 962.794 L 1031.31 962.794 C 1031.23 1021.79 1029.76 1088.59 1031.78 1147.25 C 1043.41 1158.34 1049.32 1172.91 1029.57 1179.2 C 1010.49 1174.46 1007.23 1159.59 1023.28 1147.54 C 1025.75 1089.57 1023.4 1021.83 1024 962.794 z"/>
<path transform="translate(0,0)" fill="rgb(46,113,160)" d="M 1025.13 1156.5 C 1028.45 1154.81 1032.51 1156.11 1034.22 1159.41 C 1035.94 1162.72 1034.66 1166.79 1031.37 1168.52 C 1028.04 1170.27 1023.94 1168.98 1022.21 1165.65 C 1020.48 1162.31 1021.79 1158.21 1025.13 1156.5 z"/>
<path transform="translate(0,0)" fill="rgb(142,201,243)" d="M 914.201 933.392 C 914.847 936.599 915.453 939.977 916.288 943.12 C 906.759 942.721 894.478 943.042 884.743 943.054 C 877.883 947.802 871.43 954.097 865.487 959.904 C 864.954 976.719 865.768 994.482 865.334 1011.59 C 909.749 1051.38 810.657 1045.78 855.014 1012.7 C 854.44 978.051 849.993 957.531 880.586 934.187 L 914.201 933.392 z"/>
<path transform="translate(0,0)" fill="rgb(46,113,160)" d="M 858.247 1020.45 C 860.608 1019.8 863.136 1020.47 864.858 1022.21 C 866.581 1023.96 867.227 1026.49 866.549 1028.85 C 865.871 1031.2 863.975 1033 861.59 1033.56 C 858.003 1034.4 854.403 1032.21 853.493 1028.64 C 852.582 1025.07 854.696 1021.43 858.247 1020.45 z"/>
<path transform="translate(0,0)" fill="rgb(56,66,87)" d="M 1141.61 910.996 L 1142.54 905.877 C 1146.49 904.186 1189.15 904.977 1196.77 905.01 C 1248.57 943.217 1230.54 946.618 1298.06 946.008 C 1291.26 970.65 1281.7 996.803 1268.41 1018.92 C 1229.35 1083.9 1167.07 1138.24 1102 1176.13 C 1087.63 1184.49 1043.8 1206.15 1029 1209.04 C 1028.9 1199.5 1029.36 1188.82 1029.57 1179.2 C 1049.32 1172.91 1043.41 1158.34 1031.78 1147.25 C 1029.76 1088.59 1031.23 1021.79 1031.31 962.794 C 1043.25 963.086 1055.19 963.107 1067.13 962.859 L 1077.11 962.82 C 1102.88 965.747 1121.3 965.823 1139.16 944.885 C 1140.09 941.979 1141.13 936.44 1141.66 933.335 C 1142.02 924.948 1142.06 919.353 1141.61 910.996 z"/>
<path transform="translate(0,0)" fill="rgb(113,144,144)" d="M 1067.13 962.859 L 1077.11 962.82 C 1076.52 1010.93 1076.83 1060.04 1077.01 1108.19 C 1083.39 1116.73 1086.86 1120.59 1095.52 1126.75 C 1101.17 1126.64 1113.17 1127.14 1116.61 1131.98 C 1132.28 1154.06 1081 1175.82 1088.43 1133.76 L 1085.32 1130.68 C 1079.87 1125.25 1072.38 1118.86 1069.73 1111.5 C 1064.67 1097.47 1067.14 985.757 1067.13 962.859 z"/>
<path transform="translate(0,0)" fill="rgb(56,66,87)" d="M 1102.29 1134.52 C 1106.07 1133.98 1109.63 1136.44 1110.45 1140.17 C 1111.27 1143.9 1109.09 1147.64 1105.43 1148.74 C 1102.81 1149.53 1099.96 1148.79 1098.06 1146.81 C 1096.16 1144.84 1095.53 1141.97 1096.42 1139.38 C 1097.31 1136.79 1099.57 1134.91 1102.29 1134.52 z"/>
<path transform="translate(0,0)" fill="rgb(113,144,144)" d="M 1141.66 933.335 C 1144.61 936.27 1170.59 935.159 1176.51 935.156 C 1184.26 942.462 1193.2 950.136 1198.85 959.075 C 1200.25 978.08 1201.19 993.17 1200.98 1012.24 C 1228.33 1033.08 1197.38 1049.19 1181.88 1034.33 C 1175.24 1027.96 1184.51 1016.76 1190.04 1011.78 L 1190.43 960.967 C 1184.34 954.843 1177.82 949.172 1170.91 943.997 C 1161.82 943.989 1147.74 943.593 1139.16 944.885 C 1140.09 941.979 1141.13 936.44 1141.66 933.335 z"/>
<path transform="translate(0,0)" fill="rgb(52,72,83)" d="M 1195.14 1020.36 C 1198.53 1019.96 1201.66 1022.26 1202.29 1025.62 C 1202.92 1028.98 1200.84 1032.25 1197.53 1033.1 C 1195.18 1033.71 1192.69 1032.96 1191.07 1031.15 C 1189.45 1029.35 1188.97 1026.79 1189.83 1024.52 C 1190.68 1022.25 1192.73 1020.65 1195.14 1020.36 z"/>
<path transform="translate(0,0)" fill="rgb(56,66,87)" d="M 1028.04 582.907 C 1035.73 583.099 1080.36 601.5 1090.66 605.404 C 1105.15 610.95 1119.78 616.123 1134.53 620.918 C 1172.61 633.114 1211.28 643.392 1250.39 651.713 C 1270.36 655.983 1300.76 660.675 1318.93 665.518 C 1320.41 703.514 1322.44 741.885 1321.76 779.895 C 1289.88 779.906 1252.55 774.072 1227.82 795.977 C 1217.71 804.933 1207.18 814.869 1196.79 823.26 C 1180.95 824 1158.81 823.948 1142.84 823.247 C 1144.4 791.63 1139.52 782.51 1109.46 773.166 C 1108.59 709.88 1100.88 664.942 1027.75 659.514 L 1028.04 582.907 z"/>
<path transform="translate(0,0)" fill="rgb(46,113,160)" d="M 1027.34 582.827 L 1028.04 582.907 L 1027.75 659.514 C 1004.77 660.419 984.465 666.365 968.335 683.666 C 944.772 708.94 944.936 740.307 945.962 772.748 C 921.098 782.092 911.103 787.154 913.321 815.895 C 913.031 819.232 913.36 821.236 911.551 823.374 C 900.243 824.678 871.336 823.506 858.382 823.32 C 841.247 807.253 827.367 794.112 808.465 780.094 C 783.838 779.235 758.472 779.573 733.781 779.606 C 733.412 741.612 734.443 703.617 736.872 665.699 C 804.37 653.782 860.101 641.932 925.889 619.937 C 944.713 613.685 963.344 606.863 981.755 599.482 C 995.678 594.047 1013.16 586.801 1027.34 582.827 z"/>
<path transform="translate(0,0)" fill="rgb(46,113,160)" d="M 734.486 788.639 C 758.988 788.967 783.453 788.304 808.064 788.799 C 822.736 800.448 839.654 816.566 853.925 829.308 L 914.119 829.116 C 915.291 836.984 914.854 851.339 914.982 859.907 C 915.035 866.634 915.505 892.084 914.2 897.436 L 913.978 898.346 C 905.653 899.763 863.379 898.977 852.806 898.93 C 837.6 909.62 824.637 925.349 805.788 937.804 C 788.93 937.976 772.071 937.945 755.213 937.712 C 743.102 896.41 736.58 831.36 734.486 788.639 z"/>
<path transform="translate(0,0)" fill="rgb(142,201,243)" d="M 810.326 868.527 C 803.017 878.935 792.004 886.908 782.572 875.672 C 768.933 859.426 794.788 830.423 810.924 859.7 C 843.888 860.839 881.795 859.928 914.982 859.907 C 915.035 866.634 915.505 892.084 914.2 897.436 C 913.699 888.087 914.143 877.474 914.324 868.021 L 810.326 868.527 z"/>
<path transform="translate(0,0)" fill="rgb(46,113,160)" d="M 792.533 856.731 C 796.512 855.647 800.648 857.847 801.974 861.752 C 803.299 865.657 801.358 869.919 797.542 871.482 C 794.856 872.583 791.781 872.101 789.56 870.233 C 787.339 868.364 786.338 865.417 786.962 862.583 C 787.587 859.748 789.732 857.494 792.533 856.731 z"/>
<path transform="translate(0,0)" fill="rgb(56,66,87)" d="M 1250.1 789.044 C 1272.18 787.153 1298.5 789.008 1321.07 788.25 C 1320.36 828.826 1310.9 897.78 1300.68 936.878 C 1283.6 937.1 1266.53 937.213 1249.45 937.215 C 1231.62 924.961 1218.48 910.906 1202.26 897.991 C 1184.18 897.951 1158.57 898.631 1141.04 897.408 L 1140.86 890.508 C 1139.26 881.522 1140.19 868.912 1140.82 859.842 C 1141.65 851.046 1142.11 845.301 1141.96 836.528 L 1143.47 830.989 C 1148.8 828.424 1190.26 830.176 1199.98 829.76 C 1218.76 817.586 1233.65 799.594 1250.1 789.044 z"/>
<path transform="translate(0,0)" fill="rgb(113,144,144)" d="M 1244.7 860.094 C 1248.15 855.762 1255.9 846.704 1261.36 847.149 C 1289.37 849.433 1272.22 906.133 1245.12 868.166 C 1210.43 868.358 1175.73 868.328 1141.04 868.076 C 1141.05 874.37 1141.35 884.54 1140.86 890.508 C 1139.26 881.522 1140.19 868.912 1140.82 859.842 C 1175.01 859.941 1210.63 860.581 1244.7 860.094 z"/>
<path transform="translate(0,0)" fill="rgb(52,72,83)" d="M 1258.99 857.669 C 1261.47 856.834 1264.22 857.406 1266.16 859.164 C 1268.11 860.922 1268.95 863.594 1268.37 866.151 C 1267.79 868.709 1265.88 870.755 1263.37 871.502 C 1259.57 872.63 1255.57 870.51 1254.38 866.737 C 1253.19 862.964 1255.24 858.929 1258.99 857.669 z"/>
<path transform="translate(0,0)" fill="rgb(142,201,243)" d="M 726.053 655.983 C 795.507 644.123 860.527 629.964 927.634 607.243 C 948.834 599.89 969.849 592.016 990.66 583.626 C 1000.96 579.566 1017.52 572.369 1027.79 569.89 C 1027.92 573.769 1028.48 579.321 1027.34 582.827 C 1013.16 586.801 995.678 594.047 981.755 599.482 C 963.344 606.863 944.713 613.685 925.889 619.937 C 860.101 641.932 804.37 653.782 736.872 665.699 C 734.443 703.617 733.412 741.612 733.781 779.606 C 758.472 779.573 783.838 779.235 808.465 780.094 C 827.367 794.112 841.247 807.253 858.382 823.32 C 871.336 823.506 900.243 824.678 911.551 823.374 C 913.36 821.236 913.031 819.232 913.321 815.895 C 913.531 820.306 913.677 824.725 914.119 829.116 L 853.925 829.308 C 839.654 816.566 822.736 800.448 808.064 788.799 C 783.453 788.304 758.988 788.967 734.486 788.639 C 736.58 831.36 743.102 896.41 755.213 937.712 C 772.071 937.945 788.93 937.976 805.788 937.804 C 824.637 925.349 837.6 909.62 852.806 898.93 C 863.379 898.977 905.653 899.763 913.978 898.346 C 913.968 907.197 914.285 918.71 913.86 927.331 C 912.771 919.493 912.954 912.978 912.972 905.057 C 895.013 905.039 874.594 904.544 856.828 905.23 C 813.175 944.87 819.788 946.76 758.409 946.766 C 763.768 964.826 770.52 985.93 779.094 1002.57 C 819.033 1080.11 888.737 1140.21 964.827 1180.88 C 979.878 1188.92 1012.29 1205.2 1028.07 1209.32 L 1028.14 1220.91 L 1019.24 1221.02 C 1018.87 1220.23 1018.5 1219.44 1018.14 1218.65 C 999.159 1209.45 972.235 1197.29 954.47 1187.65 C 904.981 1161.22 860.381 1126.51 822.599 1085.04 C 737.703 991.446 724.08 870.014 722.725 748.053 C 722.386 717.53 724.576 686.518 726.053 655.983 z"/>
<path transform="translate(0,0)" fill="rgb(113,144,144)" d="M 1027.79 569.89 C 1055.12 578.76 1084.48 592.199 1112.14 601.895 C 1159.41 618.351 1207.7 631.748 1256.69 642.002 C 1276.63 646.379 1308.41 653.021 1328.85 655.62 C 1338.64 792.08 1337.96 965.134 1243.01 1074.55 C 1203.59 1119.98 1154.39 1158.61 1101.88 1187.69 C 1089.39 1194.65 1043.72 1214.66 1036.8 1221.29 L 1028.14 1220.91 L 1028.07 1209.32 L 1029 1209.04 C 1043.8 1206.15 1087.63 1184.49 1102 1176.13 C 1167.07 1138.24 1229.35 1083.9 1268.41 1018.92 C 1281.7 996.803 1291.26 970.65 1298.06 946.008 C 1230.54 946.618 1248.57 943.217 1196.77 905.01 C 1189.15 904.977 1146.49 904.186 1142.54 905.877 L 1141.61 910.996 C 1141.22 907.218 1141.19 901.361 1141.04 897.408 C 1158.57 898.631 1184.18 897.951 1202.26 897.991 C 1218.48 910.906 1231.62 924.961 1249.45 937.215 C 1266.53 937.213 1283.6 937.1 1300.68 936.878 C 1310.9 897.78 1320.36 828.826 1321.07 788.25 C 1298.5 789.008 1272.18 787.153 1250.1 789.044 C 1233.65 799.594 1218.76 817.586 1199.98 829.76 C 1190.26 830.176 1148.8 828.424 1143.47 830.989 L 1141.96 836.528 C 1142.04 832.367 1142.53 827.46 1142.84 823.247 C 1158.81 823.948 1180.95 824 1196.79 823.26 C 1207.18 814.869 1217.71 804.933 1227.82 795.977 C 1252.55 774.072 1289.88 779.906 1321.76 779.895 C 1322.44 741.885 1320.41 703.514 1318.93 665.518 C 1300.76 660.675 1270.36 655.983 1250.39 651.713 C 1211.28 643.392 1172.61 633.114 1134.53 620.918 C 1119.78 616.123 1105.15 610.95 1090.66 605.404 C 1080.36 601.5 1035.73 583.099 1028.04 582.907 L 1027.34 582.827 C 1028.48 579.321 1027.92 573.769 1027.79 569.89 z"/>
<path transform="translate(0,0)" fill="rgb(227,124,53)" d="M 799.259 1085.67 C 819.119 1105.86 837.207 1125.2 859.048 1143.57 C 863.778 1147.54 872.79 1156.92 876.802 1159.87 C 878.226 1165.04 879.736 1172.68 881.214 1177.27 C 871.734 1179.82 848.751 1188.95 839.702 1193.79 C 813.159 1151.87 786.841 1140.31 799.259 1085.67 z"/>
<path transform="translate(0,0)" fill="rgb(167,101,53)" d="M 1174.45 1164.61 C 1204.07 1141.66 1231.11 1114.39 1255.75 1086.24 C 1272.5 1139.05 1239.57 1149.19 1220.56 1189.32 C 1203.38 1185.63 1189.31 1181.59 1172.48 1177.25 C 1172.89 1172.23 1173.4 1169.56 1174.45 1164.61 z"/>
<path transform="translate(0,0)" fill="rgb(56,66,87)" d="M 1006.31 249.496 C 1029.15 249.575 1054.5 248.979 1077.07 250.478 C 1101.62 252.109 1094.54 305.643 1094.29 323.55 C 1107.19 323.332 1152.77 321.377 1161.25 326.753 C 1167.31 338.026 1165.18 377.803 1165.11 392.738 C 1164.95 423.849 1164.99 454.962 1165.22 486.073 C 1172.17 485.846 1179.73 485.953 1186.74 485.92 L 1186.51 498.538 C 1163.3 497.217 1137.25 498.688 1114 498.879 C 1087.59 499.096 1061.09 499.081 1034.67 499.179 C 1034.49 506.986 1034.43 514.797 1034.5 522.607 L 1034.53 535.132 L 1018.94 535.238 L 1018.89 499.46 C 1000.87 499.964 979.457 499.373 961.249 499.357 C 928.835 499.494 896.421 499.354 864.009 498.939 L 863.916 486.072 L 884.811 486.418 C 880.339 439.999 886.73 382.126 884.431 334.629 C 883.574 316.911 944.783 323.62 956.994 323.817 C 956.887 309.776 953.527 262.946 962.431 253.325 C 967.836 247.484 996.144 249.454 1006.31 249.496 z M 970.104 486.297 C 981.795 486.311 994.062 486.126 1005.7 486.604 C 1005.71 472.41 1006.48 443.791 1005.11 430.927 C 1018.57 430.777 1032.26 430.455 1045.7 430.893 C 1045.58 442.678 1045.56 454.465 1045.65 466.25 C 1045.57 472.75 1045.61 479.769 1045.32 486.215 C 1056.97 486.089 1068.62 486.146 1080.28 486.388 C 1080.9 412.903 1078.86 337.104 1080.57 263.995 C 1044.14 263.976 1006.33 264.501 970.018 263.902 C 970.542 337.514 968.89 413.339 970.104 486.297 z M 1151.98 336.814 C 1137.53 335.776 1117.13 335.802 1102.56 336.414 C 1099.54 336.66 1096.69 336.487 1094.21 337.778 C 1093.25 355.173 1093.96 377.278 1093.92 395.004 C 1093.7 425.351 1093.71 455.699 1093.97 486.045 L 1147.25 486.07 L 1151.07 485.899 C 1151.4 485.48 1151.73 485.06 1152.06 484.641 C 1151.59 444.551 1152.65 373.803 1151.98 336.814 z M 909.917 336.461 C 906.049 336.586 901.695 336.838 897.871 336.753 C 897.845 385.862 896.464 438.136 898.064 486.834 C 910.359 486.064 930.799 486.205 943.328 486.472 L 956.805 487.029 C 955.926 436.473 957.042 386.717 956.89 336.372 C 941.232 336.287 925.574 336.317 909.917 336.461 z"/>
<path transform="translate(0,0)" fill="rgb(56,66,87)" d="M 1019.9 280.263 C 1025.17 280.108 1030.15 280.557 1035.4 280.913 C 1035.96 288.597 1035.73 298.895 1035.79 306.774 C 1043.9 306.365 1052.63 306.303 1060.8 306.09 L 1061.03 327.356 C 1052.48 327.034 1043.55 327.202 1034.97 327.234 C 1034.78 335.544 1034.66 343.857 1034.62 352.169 L 1016.02 351.882 L 1016.09 327.188 C 1007.98 327.007 999.557 327.103 991.42 327.08 C 991.996 320.105 991.906 313.087 991.94 306.085 L 1015.98 306.15 C 1015.9 298.349 1014.18 285.625 1019.9 280.263 z"/>
<path transform="translate(0,0)" fill="rgb(56,66,87)" d="M 1038.49 374.307 C 1047.31 374.539 1056.87 374.329 1065.75 374.307 C 1065.23 382.785 1065.89 394.711 1064.61 402.735 C 1057.22 402.227 1046.43 402.764 1038.79 402.922 C 1038.16 394.916 1038.51 382.629 1038.49 374.307 z"/>
<path transform="translate(0,0)" fill="rgb(56,66,87)" d="M 997.655 375.498 C 1001.12 375.426 1006.54 375.073 1008.97 377.524 C 1010.38 384.49 1010.51 394.251 1009.66 401.343 C 1006.94 402.724 1003.32 402.392 1000.02 402.483 C 995.235 402.372 990.462 402.626 985.673 402.808 C 985.823 393.939 985.815 385.068 985.648 376.199 L 997.655 375.498 z"/>
<path transform="translate(0,0)" fill="rgb(56,66,87)" d="M 913.921 422.038 C 922.426 422.365 932.397 422.1 941.011 422.084 L 940.723 450.046 L 913.976 450.369 C 914.169 441.053 913.978 431.383 913.921 422.038 z"/>
<path transform="translate(0,0)" fill="rgb(56,66,87)" d="M 913.91 375.981 C 923.195 376.308 932.492 376.049 941.745 375.207 C 941.252 384.932 941.582 392.617 942.005 402.286 C 936.059 403.368 920.617 402.897 913.945 402.841 C 914.122 394.034 913.945 384.821 913.91 375.981 z"/>
<path transform="translate(0,0)" fill="rgb(56,66,87)" d="M 1109.86 421.161 C 1118.36 421.884 1127.14 421.298 1135.69 420.953 C 1134.82 428.518 1135.19 442.347 1135.17 450.401 C 1127.13 451.139 1117.8 450.957 1109.63 450.998 C 1110.03 440.775 1109.97 431.358 1109.86 421.161 z"/>
<path transform="translate(0,0)" fill="rgb(56,66,87)" d="M 1108.16 375.053 C 1116.79 375.536 1127.15 375.162 1135.91 375.067 C 1135.9 384.084 1135.93 393.1 1136 402.116 L 1108.38 402.298 L 1108.16 375.053 z"/>
<path transform="translate(0,0)" fill="rgb(101,156,82)" d="M 1086.02 1338.76 C 1089.69 1334.2 1092.59 1328.71 1096.59 1324.15 C 1122.46 1294.7 1145.68 1265.22 1159.04 1227.7 C 1164.93 1211.17 1168.57 1194.57 1172.48 1177.25 C 1189.31 1181.59 1203.38 1185.63 1220.56 1189.32 C 1208.92 1225.32 1202.35 1264.61 1189.06 1299.37 C 1179.23 1325.05 1154.43 1351.09 1140.98 1375.52 C 1134.52 1387.46 1129.92 1400.31 1127.34 1413.63 C 1123.61 1432.52 1122.96 1458.35 1122.12 1477.86 C 1120.9 1505.13 1119.85 1532.41 1118.97 1559.69 C 1109.3 1556.56 1025.42 1558.88 1008.5 1558.34 L 1004.92 1558.44 L 995.621 1398.11 C 994.559 1381.4 992.708 1365.01 991.878 1348.27 C 1030.41 1363.63 1050.16 1353.02 1086.02 1338.76 z"/>
<path transform="translate(0,0)" fill="rgb(227,124,53)" d="M 991.878 1348.27 C 1030.41 1363.63 1050.16 1353.02 1086.02 1338.76 C 1084.27 1388.66 1082.22 1438.54 1079.87 1488.42 C 1078.91 1510.54 1077.04 1536.34 1076.69 1558.09 C 1056.27 1558.11 1028.28 1557.33 1008.5 1558.34 L 1004.92 1558.44 L 995.621 1398.11 C 994.559 1381.4 992.708 1365.01 991.878 1348.27 z"/>
<path transform="translate(0,0)" fill="rgb(56,66,87)" d="M 403.068 631.628 C 408.367 634.33 413.789 636.747 419.198 639.226 C 410.479 659.023 396.54 681.195 386.509 701.491 C 363.071 748.876 345.345 798.876 333.705 850.443 C 331.322 861.023 327.666 877.656 326.761 888.214 L 440.724 888.26 C 460.967 888.278 487.559 887.695 507.349 889.078 C 521.57 898.631 561.354 939.484 570.023 953.892 C 570.206 967.953 570.97 987 570.118 1000.65 C 564.364 996.476 559.216 993.066 554.363 987.845 L 554.347 960.96 C 544.625 949.265 510.065 912.973 498.152 903.143 C 440.129 902.418 382.349 903.437 324.348 903.152 C 308.955 1002.81 315.232 1104.62 342.75 1201.64 C 397.899 1389.66 516.656 1545.6 689.443 1640.2 C 767.202 1681.36 842.451 1708.07 930.191 1720.53 L 929.817 1739.51 C 923.674 1737.86 912.063 1736.52 905.137 1735.44 C 891.268 1733.35 877.493 1730.69 863.847 1727.45 C 785.726 1709.28 711.221 1678.08 643.453 1635.18 C 476.318 1529.26 358.502 1360.88 316.262 1167.57 C 284.177 1015.78 299.608 857.789 360.46 715.077 C 372.475 687.021 386.503 657.361 403.068 631.628 z"/>
<path transform="translate(0,0)" fill="rgb(56,66,87)" d="M 1651.08 638.041 C 1653.93 637.819 1653.78 637.699 1656.41 638.725 C 1663.48 645.945 1670.98 663.38 1675.72 673.107 C 1706.44 736.085 1730.54 802.76 1743.62 871.731 C 1781.09 1063.65 1740.31 1262.58 1630.36 1424.28 C 1537.3 1561.83 1400.52 1663.94 1242.19 1714.06 C 1204.05 1726.19 1169.71 1733.38 1130.73 1740.78 L 1130.65 1721.76 C 1211.19 1708.91 1288.98 1682.6 1360.78 1643.93 C 1452.24 1594.45 1531.94 1525.81 1594.45 1442.71 C 1665.28 1348.05 1712.35 1237.78 1731.71 1121.15 C 1745.67 1039.99 1743.11 982.715 1731.78 902.183 C 1677 900.658 1614.62 901.753 1559.44 902.263 C 1544.55 916.67 1516.78 943.745 1505.07 959.418 C 1504.64 968.938 1504.78 976.694 1505.04 986.169 C 1500.37 990.124 1493.95 994.606 1488.92 998.318 C 1488.7 989.816 1488.54 981.313 1488.43 972.809 C 1488.31 958.025 1488.7 951.586 1498.31 939.662 C 1509.17 926.174 1521.26 914.452 1533.51 902.343 C 1547.63 888.375 1559.43 888.104 1578.44 888.246 C 1596.12 888.186 1613.6 888.032 1631.12 887.932 L 1729.65 887.342 C 1720.58 846.777 1713.51 814.265 1699.09 774.308 C 1681.89 726.629 1661.93 687.129 1638.79 642.623 L 1651.08 638.041 z"/>
<path transform="translate(0,0)" fill="rgb(227,124,53)" d="M 974.79 1284.11 C 976.294 1267.83 985.182 1253.14 998.903 1244.26 C 1012.62 1235.38 1029.66 1233.28 1045.13 1238.57 C 1061.89 1244.3 1074.71 1257.99 1079.34 1275.09 C 1084.99 1295.97 1077.46 1318.2 1060.28 1331.35 C 1043.11 1344.5 1019.68 1345.96 1001 1335.06 C 983.105 1324.61 972.883 1304.74 974.79 1284.11 z"/>
<path transform="translate(0,0)" fill="rgb(46,113,160)" d="M 974.79 1284.11 C 976.294 1267.83 985.182 1253.14 998.903 1244.26 C 1012.62 1235.38 1029.66 1233.28 1045.13 1238.57 C 1044.3 1243.53 1043.68 1247.5 1043.24 1252.56 C 1038.1 1266.49 1021.28 1282.89 1006.37 1285.01 C 995.289 1284.77 986.107 1284.67 974.79 1284.11 z"/>
<path transform="translate(0,0)" fill="rgb(101,156,82)" d="M 974.79 1284.11 C 986.107 1284.67 995.289 1284.77 1006.37 1285.01 C 1003.28 1285.77 1002.04 1285.49 1000.14 1287.39 C 999.81 1299 1002.7 1326.47 1001 1335.06 C 983.105 1324.61 972.883 1304.74 974.79 1284.11 z"/>
<path transform="translate(0,0)" fill="rgb(56,66,87)" d="M 1045.13 1238.57 C 1061.89 1244.3 1074.71 1257.99 1079.34 1275.09 C 1062.28 1274.14 1054.32 1264.33 1043.24 1252.56 C 1043.68 1247.5 1044.3 1243.53 1045.13 1238.57 z"/>
<path transform="translate(0,0)" fill="rgb(56,66,87)" d="M 941.603 1558.69 C 961.376 1557.46 984.187 1559.26 1004.92 1558.44 L 1008.5 1558.34 C 1025.42 1558.88 1109.3 1556.56 1118.97 1559.69 C 1117.45 1571.16 1116.75 1605.94 1116.64 1618.58 C 1116.3 1659.09 1114.87 1702.34 1115.79 1742.69 C 1099.84 1743.02 1078.39 1745.29 1061.92 1746.45 C 1057.24 1704.21 1048.74 1658.14 1042.33 1616 L 1017.21 1616.02 C 1016.39 1626.95 1013.29 1642.36 1011.45 1653.69 L 1001.99 1714.76 C 1000.52 1724.43 998.277 1736.77 997.799 1746.27 L 944.595 1741.73 C 942.032 1681.74 945 1619.94 941.603 1558.69 z"/>
<path transform="translate(0,0)" fill="rgb(46,113,160)" d="M 839.702 1193.79 C 848.751 1188.95 871.734 1179.82 881.214 1177.27 C 899.81 1245.25 929.328 1309.92 991.878 1348.27 C 992.708 1365.01 994.559 1381.4 995.621 1398.11 L 1004.92 1558.44 C 984.187 1559.26 961.376 1557.46 941.603 1558.69 C 940.468 1551.77 940.599 1536.45 939.915 1528.02 C 936.827 1490 936.432 1441.11 927.946 1404.2 C 921.093 1374.39 884.836 1337.59 872.511 1311.09 C 855.798 1275.16 851.063 1232.4 839.702 1193.79 z"/>
<path transform="translate(0,0)" fill="rgb(56,66,87)" d="M 1484.36 395.234 C 1504.81 401.761 1512.6 401.024 1534.13 401.129 C 1534.09 410.402 1534.13 419.675 1534.25 428.947 C 1520.12 427.883 1507.95 428.122 1493.87 429.097 L 1493.99 447.157 C 1527.66 465.931 1565.01 492.464 1596.54 515.203 C 1602.13 519.234 1608.59 527.214 1604.77 534.366 C 1600.49 537.445 1541.34 536.063 1531.45 536.015 C 1514.65 535.974 1375.03 538.01 1370.28 534.483 C 1369 532.043 1368.59 530.154 1369.4 527.477 C 1373.75 513.177 1465.73 457.296 1483.98 447.266 L 1484.36 395.234 z M 1400.69 523.45 C 1430.5 524.333 1462.27 523.95 1492.22 523.95 C 1520.36 523.982 1549.41 524.39 1577.47 523.947 C 1559.26 510.99 1539.58 498.427 1520.85 486.109 C 1514.23 481.753 1495.11 469.176 1488.27 466.034 C 1472.34 475.415 1455.74 486.434 1440.05 496.378 C 1430.01 502.747 1408.87 515.513 1400.69 523.45 z"/>
<path transform="translate(0,0)" fill="rgb(56,66,87)" d="M 1427.95 545.029 L 1443.01 545.148 C 1442.55 576.125 1442.54 607.108 1442.99 638.086 L 1463.57 638.063 C 1463.89 632.368 1463.88 626.236 1463.79 620.5 C 1463.41 595.518 1464.5 570.092 1463.48 545.156 C 1468.21 545.723 1474.1 545.485 1478.95 545.455 C 1478.53 576.266 1478.53 607.081 1478.95 637.892 C 1485.21 637.628 1492.63 637.9 1498.97 637.985 C 1497.78 607.623 1499.67 575.335 1498.19 545.423 C 1504.01 545.303 1509.94 545.512 1515.76 545.636 C 1515.15 576.269 1515.66 607.413 1515.35 638.165 L 1537.56 638.013 C 1537.44 632.571 1537.74 626.721 1537.9 621.25 C 1537.91 602.012 1538.93 563.17 1537.15 545.281 L 1552.93 545.211 C 1551.7 575.599 1551.89 607.829 1552.04 638.349 C 1558.83 638.306 1565.63 638.404 1572.42 638.646 C 1571.47 609.043 1572.48 575.492 1572.15 545.159 L 1589.19 545.007 C 1588.79 576.023 1588.69 607.042 1588.9 638.059 C 1594.05 637.476 1599.06 637.311 1604.23 637.07 L 1603.95 651.884 C 1528.37 653.917 1450.17 651.305 1374.14 652.969 L 1374.16 638.138 L 1388.74 638.193 C 1387.11 614.041 1388.66 571.04 1388.73 545.754 L 1405.09 545.492 L 1406.11 545.501 C 1406.47 545.984 1406.82 546.466 1407.18 546.949 C 1406.8 567.58 1406.34 620.742 1406.81 638.163 L 1428.2 638.196 L 1427.95 545.029 z"/>
<path transform="translate(0,0)" fill="rgb(56,66,87)" d="M 564.491 431.86 C 580.847 436.682 617.879 467.621 630.449 479.824 C 630.646 471.211 630.421 462.121 630.347 453.47 C 640.209 453.998 651.661 453.287 661.647 452.922 C 661.259 469.05 661.071 487.682 661.865 503.608 C 677.528 519.516 701.386 537.525 719.048 552.726 C 713.22 556.009 709.647 558.816 704.326 562.853 L 678.676 542.148 C 677.71 584.641 680.617 633.926 678.204 675.231 L 664.394 675.16 C 664.094 627.425 664.05 579.687 664.26 531.951 C 640.483 511.298 613.112 488.068 588.621 468.453 C 581.468 462.88 574.397 457.201 567.411 451.42 C 536.211 476.089 504.539 503.116 473.771 528.481 C 474.435 577.023 473.7 627.317 473.577 675.975 L 458.336 675.912 C 457.28 632 458.633 586.068 458.172 541.733 C 448.984 548.984 439.712 556.704 430.599 564.099 L 418.264 552.864 L 486.737 495.466 C 511.203 474.657 538.661 450.459 564.491 431.86 z"/>
<path transform="translate(0,0)" fill="rgb(56,66,87)" d="M 390.537 989.223 C 407.92 987.743 417.73 994.364 424.326 1010.37 C 447.86 1010.76 471.141 1009.88 494.747 1011.33 C 502.706 1017.18 518.67 1033.34 526.092 1040.63 L 574.518 1088.01 C 642.688 1088.83 710.863 1089.15 779.038 1088.98 L 779.107 1105.04 C 766.003 1103.76 746.168 1104.37 732.5 1104.4 C 678.012 1104.22 621.805 1104.86 567.426 1103.78 C 557.231 1097.14 541.484 1081.3 532.214 1072.32 L 485.177 1026.43 C 466.271 1026.01 442.476 1027.24 424.535 1026.11 C 416.529 1043.29 401.679 1056.01 382.487 1045.44 C 374.815 1041.13 369.136 1033.99 366.668 1025.55 C 361.306 1006.63 373.291 994.203 390.537 989.223 z M 396.922 1031.8 C 401.836 1029.75 405.347 1028.33 407.378 1022.96 C 408.552 1019.9 408.427 1016.49 407.033 1013.53 C 404.228 1007.67 400.057 1006.18 394.199 1004.66 C 378.179 1013.72 380.993 1031.67 396.922 1031.8 z"/>
<path transform="translate(0,0)" fill="rgb(56,66,87)" d="M 639.835 1249.48 C 704.048 1251.81 772.171 1248.1 836.373 1250.29 C 837.673 1255.06 838.822 1260.2 839.995 1265.04 C 771.859 1264.89 700.561 1265.16 632.53 1264.01 C 622.935 1275.01 601.459 1292.72 593.698 1303.56 C 594.024 1322.88 594.077 1339.79 593.664 1359.14 L 593.636 1443.02 C 599.978 1446.97 603.517 1448.87 608.349 1454.75 C 619.424 1468.23 615.736 1486.8 601.141 1496.38 C 594.159 1501.05 585.531 1502.55 577.382 1500.52 C 560.766 1496.54 552.293 1480.92 557.381 1464.26 C 560.539 1453.91 569.675 1448.12 578.858 1443.33 C 578.499 1395.58 580.752 1341.08 578.698 1294.2 C 583.89 1287.9 589.278 1281.77 594.856 1275.82 C 603.337 1266.88 615.311 1254.7 627.349 1250.41 C 629.432 1249.66 637.291 1249.54 639.835 1249.48 z M 589.877 1484.53 C 596.398 1482.14 599.774 1474.94 597.446 1468.39 C 595.118 1461.85 587.954 1458.4 581.386 1460.66 C 577.077 1462.14 573.896 1465.83 573.056 1470.3 C 572.217 1474.78 573.848 1479.37 577.327 1482.31 C 580.807 1485.26 585.599 1486.1 589.877 1484.53 z"/>
<path transform="translate(0,0)" fill="rgb(56,66,87)" d="M 1221.92 1250.97 C 1291.22 1253.34 1361.7 1249.91 1431.01 1252.06 C 1445.31 1252.5 1472.44 1285.23 1481.5 1297.06 C 1479.59 1343.44 1480.64 1398.25 1480.75 1444.98 C 1491.86 1449.85 1500.68 1456.66 1502.71 1469.44 C 1503.84 1476.46 1502.16 1483.64 1498.04 1489.43 C 1492.46 1497.12 1484.94 1500.16 1475.92 1501.65 C 1464.02 1500.75 1453.99 1497.89 1447.62 1486.64 C 1443.87 1479.96 1443.01 1472.04 1445.24 1464.71 C 1448.75 1453.52 1456.32 1449.1 1465.92 1444.41 C 1466.43 1397.64 1466.55 1350.86 1466.28 1304.08 C 1454.36 1291.6 1441.59 1277.87 1429.08 1266.03 L 1218.4 1265.43 L 1221.92 1250.97 z M 1476.93 1484.53 C 1481.29 1483.36 1484.68 1479.94 1485.81 1475.57 C 1486.94 1471.2 1485.63 1466.56 1482.39 1463.42 C 1479.15 1460.29 1474.47 1459.13 1470.14 1460.4 C 1463.56 1462.34 1459.75 1469.22 1461.61 1475.82 C 1463.47 1482.43 1470.3 1486.32 1476.93 1484.53 z"/>
<path transform="translate(0,0)" fill="rgb(56,66,87)" d="M 1652.74 989.171 C 1701.73 983.964 1704.54 1037.15 1660.91 1047.67 C 1659.06 1047.2 1657.23 1046.65 1655.42 1046.03 C 1644.68 1042.37 1638.99 1035.14 1634.19 1025.16 C 1612.14 1024.56 1596.77 1024.61 1574.77 1025.15 C 1566.82 1030.51 1558.74 1038.92 1551.52 1045.27 C 1531.18 1063.18 1510.44 1086.74 1489.5 1103.47 C 1442.78 1105.41 1385.98 1104.06 1338.5 1104.13 L 1277 1104.21 C 1277.29 1099.16 1277.12 1094.12 1277.05 1089.06 C 1286.01 1089.35 1295.34 1089.52 1304.31 1089.28 C 1363.07 1087.68 1423.08 1090.4 1481.7 1088.2 C 1497.46 1073.32 1513.11 1058.32 1528.65 1043.2 C 1537.83 1034.33 1558.74 1011.99 1571.49 1010.85 C 1590.52 1009.16 1612.03 1009.9 1631.42 1009.6 C 1637.86 997.542 1640.67 994.598 1652.74 989.171 z M 1664.5 1028.44 C 1671.42 1027.22 1676.02 1020.6 1674.75 1013.69 C 1673.49 1006.78 1666.84 1002.23 1659.94 1003.54 C 1653.1 1004.84 1648.6 1011.41 1649.85 1018.26 C 1651.1 1025.1 1657.65 1029.65 1664.5 1028.44 z"/>
<path transform="translate(0,0)" fill="rgb(56,66,87)" d="M 389.292 1120.21 C 408.989 1119.01 416.373 1124.38 424.299 1141.89 C 472.515 1141.07 522.886 1142.03 571.313 1141.99 L 787.95 1141.82 L 793.762 1157.05 C 777.895 1157.44 760.538 1157.04 744.557 1156.99 C 680.684 1156.24 616.807 1156.03 552.931 1156.35 C 511.514 1156.51 465.029 1157.6 424.105 1156.05 C 420.885 1165.08 416.346 1173.02 407.29 1177.38 C 401.03 1180.39 393.816 1180.73 387.302 1178.31 C 371.795 1172.56 361.217 1153.31 368.44 1137.4 C 372.825 1127.73 380.045 1124.03 389.292 1120.21 z M 399.182 1162.87 C 412.992 1151.63 412.194 1136.66 392.922 1135.79 C 378.192 1147.45 383.756 1165.84 399.182 1162.87 z"/>
<path transform="translate(0,0)" fill="rgb(56,66,87)" d="M 1653.66 1120.35 C 1660.82 1119.83 1666.37 1119.51 1673.43 1121.59 C 1700.08 1129.44 1694.74 1168.36 1671.69 1177.6 C 1653.34 1184.94 1640.32 1173.88 1633.9 1157.14 C 1530.44 1155.8 1426.97 1155.49 1323.5 1156.21 C 1303.87 1156.24 1281.68 1155.7 1262.31 1156.8 L 1269.02 1142.22 C 1388.57 1143.52 1512.25 1142.69 1631.88 1142.04 C 1637.71 1129.59 1641.94 1126.07 1653.66 1120.35 z M 1666.41 1161.68 C 1673.27 1159.2 1676.85 1151.65 1674.41 1144.77 C 1671.97 1137.9 1664.43 1134.28 1657.54 1136.69 C 1650.6 1139.11 1646.95 1146.71 1649.41 1153.64 C 1651.87 1160.57 1659.49 1164.18 1666.41 1161.68 z"/>
<path transform="translate(0,0)" fill="rgb(56,66,87)" d="M 557.978 690.664 L 559.128 691.448 L 559.216 765.843 C 577.168 783.867 594.381 802.612 610.812 822.032 C 612.476 860.975 609.522 903.918 610.075 943.05 C 611.723 966.621 603.757 1008.39 620.419 1027.03 C 630.754 1038.59 662.175 1036.14 676.88 1036.06 C 699.636 1035.78 722.393 1035.63 745.15 1035.63 C 748.371 1040.7 751.526 1046.03 754.661 1051.18 C 750.155 1050.83 745.444 1050.68 740.913 1050.47 L 673.14 1050.43 C 657.995 1050.43 642.287 1051.5 627.428 1048.73 C 615.636 1046.53 600.642 1036.79 598.541 1024.13 C 593.326 992.723 594.927 960.125 595.207 928.392 L 595.65 829.241 C 578.777 812.434 558.456 791.765 544.047 772.939 C 543.264 746.791 544.009 717.395 544.12 691.007 C 548.502 691.084 553.546 690.802 557.978 690.664 z"/>
<path transform="translate(0,0)" fill="rgb(56,66,87)" d="M 808.171 1195.49 C 825.201 1194.41 824.351 1195 828.188 1211.24 C 804.431 1208.84 760.557 1210.08 734.903 1210.17 C 681.188 1210.85 627.467 1210.89 573.751 1210.29 C 561.553 1223.42 539.424 1244.85 525.869 1256.65 C 535.065 1280.82 523.429 1303.06 496.355 1302.89 C 487.572 1300.45 480.685 1296.79 475.359 1289.02 C 470.544 1281.92 468.777 1273.19 470.452 1264.77 C 475.049 1242.57 494.96 1240.15 513.621 1244.75 C 528.978 1229.04 547.88 1209.34 564.86 1196.24 C 588.809 1195.44 617.293 1196.09 641.545 1196.05 L 808.171 1195.49 z M 501.572 1285.34 C 508.716 1284.45 513.775 1277.92 512.852 1270.78 C 511.93 1263.64 505.377 1258.61 498.242 1259.57 C 491.155 1260.52 486.169 1267.02 487.086 1274.11 C 488.002 1281.2 494.477 1286.22 501.572 1285.34 z"/>
<path transform="translate(0,0)" fill="rgb(56,66,87)" d="M 1509.25 691.566 C 1512.93 691.902 1511.75 691.065 1513.71 693.094 C 1513.84 718.537 1514.31 749.251 1512.93 774.321 C 1502.46 789.028 1475.58 815.772 1462.27 829.23 C 1462.37 831.169 1462.42 833.11 1462.43 835.051 L 1462.03 954.016 C 1461.94 974.16 1463.05 995.641 1460.79 1015.53 C 1456.18 1056.05 1408.82 1050.64 1379.38 1050.67 L 1306.75 1050.58 L 1303.88 1050.75 L 1302.79 1049.51 C 1303.8 1045.09 1307.31 1040.17 1309.78 1036.14 C 1341.9 1034.17 1375.89 1036.99 1408.26 1035.51 C 1449.42 1033.63 1447.48 1013.63 1447.49 980.477 L 1447.62 934.537 L 1447.84 862.27 C 1447.86 849.187 1448.26 832.16 1447.29 819.414 C 1459.84 804.361 1483.16 782.044 1497.65 768.967 L 1497.99 691.772 L 1509.25 691.566 z"/>
<path transform="translate(0,0)" fill="rgb(56,66,87)" d="M 1233.57 1196.23 C 1320.78 1196.64 1407.99 1196.62 1495.2 1196.16 C 1503.62 1201.88 1537.22 1236.94 1545.92 1245.76 C 1583.08 1237.99 1601.04 1269.67 1576.82 1294.93 C 1567.83 1301.29 1556.68 1304.27 1546.11 1299.92 C 1539.67 1297.25 1534.6 1292.05 1532.1 1285.54 C 1528.23 1275.63 1530.55 1267.98 1534.27 1258.87 C 1519.2 1242.57 1502.5 1226.71 1487.12 1210.41 C 1461.66 1209.25 1428.82 1210.23 1402.66 1210.22 C 1345.09 1209.71 1287.52 1209.98 1229.95 1211.05 C 1230.99 1204.51 1231.34 1202.59 1233.57 1196.23 z M 1558.77 1286 C 1575.99 1280.16 1576.66 1262.45 1559.05 1259.19 C 1541.97 1263.89 1541.37 1283.51 1558.77 1286 z"/>
<path transform="translate(0,0)" fill="rgb(56,66,87)" d="M 561.062 553.13 C 585.608 549.137 608.743 565.8 612.734 590.346 C 616.726 614.892 600.063 638.026 575.517 642.017 C 550.971 646.008 527.838 629.346 523.847 604.801 C 519.855 580.256 536.517 557.122 561.062 553.13 z M 572.886 626.523 C 588.812 624.267 599.934 609.583 597.792 593.642 C 595.649 577.7 581.045 566.473 565.088 568.502 C 548.97 570.551 537.604 585.336 539.769 601.439 C 541.933 617.543 556.798 628.802 572.886 626.523 z"/>
<path transform="translate(0,0)" fill="rgb(56,66,87)" d="M 856.164 298.168 C 858.645 297.802 861.988 297.086 863.536 299.783 C 872.443 315.238 856.607 316.802 845.757 319.924 C 793.835 334.867 742.911 354.208 694.963 379.207 C 672.04 391.158 650.88 405.628 628.366 418.054 L 626.326 417.657 C 622.961 413.561 621.078 409.06 618.725 404.288 C 630.939 393.708 651.197 381.838 665.47 373.733 C 726.332 339.172 788.745 316.035 856.164 298.168 z"/>
<path transform="translate(0,0)" fill="rgb(56,66,87)" d="M 1190.91 295.88 C 1205.74 299.001 1223.14 304.57 1237.57 309.188 C 1294.66 327.027 1349.54 351.283 1401.16 381.492 C 1411.96 387.924 1426.35 396.525 1435.6 404.732 L 1428.29 416.612 C 1423.71 418.476 1397.09 401.744 1391.25 398.252 C 1332.19 362.931 1269.09 335.903 1202.66 317.91 C 1188.38 314.042 1181.67 311.324 1190.91 295.88 z"/>
<path transform="translate(0,0)" fill="rgb(56,66,87)" d="M 1364.39 659.384 C 1373.8 660.291 1386.4 659.811 1396.07 659.753 L 1446.38 659.617 C 1504.12 659.301 1561.86 659.46 1619.6 660.096 C 1619.84 664.061 1620.67 671.76 1618.71 674.806 C 1591.82 672.99 1550.4 674.294 1522.25 674.379 L 1364.13 674.888 C 1363.95 669.466 1363.56 664.753 1364.39 659.384 z"/>
<path transform="translate(0,0)" fill="rgb(56,66,87)" d="M 764.867 1740.28 C 771.768 1739.52 777.972 1739.21 784.562 1741.66 C 792.128 1744.4 798.205 1750.18 801.333 1757.6 C 810.621 1779.16 798.966 1798.32 778.58 1806.93 C 731.668 1808.41 727.475 1759.31 764.867 1740.28 z M 771.454 1792.09 C 794.507 1785.73 795.618 1754.72 772.401 1753.81 C 753.986 1763.98 745.25 1790.34 771.454 1792.09 z"/>
<path transform="translate(0,0)" fill="rgb(56,66,87)" d="M 305.303 1271.98 L 308.468 1272.09 C 315.773 1275.92 319.69 1291.13 320.904 1299.03 C 325.453 1328.62 303.008 1348.88 274.56 1334.9 C 260.423 1322.61 257.153 1308.71 251.039 1291.42 C 269.08 1284.81 287.168 1278.33 305.303 1271.98 z M 269.429 1302.48 C 273.566 1311.46 274.574 1314.55 282.638 1320.69 C 304.997 1330.1 313.273 1305.48 303.022 1290.17 L 301.43 1289.88 C 290.512 1293.41 279.824 1297.62 269.429 1302.48 z"/>
<path transform="translate(0,0)" fill="rgb(56,66,87)" d="M 546.549 1618.27 C 587.23 1616.96 588.884 1674.87 546.477 1684.07 C 501.489 1683.89 502.759 1625.74 546.549 1618.27 z M 527.048 1656.01 C 531.633 1665.49 532.819 1668.63 543.73 1669.15 C 563.71 1662.06 572.065 1637.4 547.492 1631.96 C 535.021 1638.79 531.374 1642.05 527.048 1656.01 z"/>
<path transform="translate(0,0)" fill="rgb(56,66,87)" d="M 222.018 902.958 L 279.686 909.764 C 279.49 926.452 277.339 942.491 267.455 956.258 C 252.995 971.029 235.258 970.52 224.19 952.315 C 216.074 938.966 218.425 917.503 222.018 902.958 z M 258.76 945.21 C 264.474 936.555 264.795 933.552 266.6 923.625 C 254.545 921.118 243.22 920.98 232.452 918.901 C 231.429 928.791 230.215 937.852 237.031 946.388 C 243.331 954.278 252.204 950.423 258.76 945.21 z"/>
<path transform="translate(0,0)" fill="rgb(56,66,87)" d="M 420.016 1482.51 C 426.223 1484.01 457.051 1520.76 462.631 1527.72 C 458.976 1537.71 454.585 1547.92 450.753 1557.96 C 460.383 1554.86 467.142 1552.88 477.029 1550.66 C 484.455 1552.98 486.285 1554.85 492.186 1559.7 C 467.585 1566.82 447.745 1571.42 427.644 1588.17 C 425.112 1584.72 420.919 1579.63 421.414 1575.32 C 436.332 1560.12 439.571 1548.45 448.058 1528.74 C 441.471 1524.14 438.303 1521.98 432.707 1516.32 C 422.775 1522.58 401.737 1540.07 391.815 1547.86 C 388.352 1543.85 384.942 1539.79 381.588 1535.69 C 394.582 1525.06 410.094 1512.77 423.693 1503.14 C 418.01 1495.37 412.164 1490.6 420.016 1482.51 z"/>
<path transform="translate(0,0)" fill="rgb(56,66,87)" d="M 594.281 1647.38 C 622.972 1659.32 649.311 1693.36 605.325 1705.35 C 604.553 1713.76 603.954 1720.97 602.362 1729.3 C 596.681 1726.43 592.652 1724.46 588.88 1719.31 C 589.99 1713.57 590.66 1708 591.417 1702.21 C 588.105 1699.69 584.807 1697.14 581.525 1694.58 C 578.241 1701 575.643 1704.4 570.862 1709.66 L 559.719 1702.02 C 571.024 1685.42 583.421 1664.67 594.281 1647.38 z M 603.931 1691.04 C 620.235 1683.08 613.049 1673.1 600.134 1667.62 C 596.54 1672.84 593.001 1678.17 589.103 1683.16 C 594.043 1685.95 598.726 1688.76 603.931 1691.04 z"/>
<path transform="translate(0,0)" fill="rgb(56,66,87)" d="M 1793.25 1112.11 C 1806.51 1111.47 1812.32 1112.45 1819.53 1123.45 C 1823.72 1124.99 1836.04 1118.93 1841.34 1117.63 L 1839.4 1132.59 C 1835.78 1134.9 1819.26 1141.84 1821.53 1146.49 C 1824.14 1151.87 1831.72 1151.8 1836.18 1154.61 L 1836.56 1157.18 C 1836.13 1160.63 1835.94 1165.18 1833.48 1167.51 C 1813.7 1163.43 1793.77 1161.36 1774.52 1157.17 C 1776.66 1144.38 1778.35 1132.64 1781.86 1120.11 C 1786.64 1115.74 1787.4 1115.1 1793.25 1112.11 z M 1804.73 1147.94 C 1807.6 1144.85 1809.07 1142.87 1809.01 1138.33 C 1808.93 1134.75 1807.19 1131.4 1804.31 1129.26 C 1801.83 1127.42 1799.54 1127.66 1796.64 1127.71 C 1787.49 1139.88 1788.92 1145.71 1804.73 1147.94 z"/>
<path transform="translate(0,0)" fill="rgb(56,66,87)" d="M 320.463 1443.14 C 332.17 1438.32 366.745 1416.42 373.741 1414.68 C 386.024 1419.85 373.284 1445.94 370.106 1456.25 C 368.863 1459.23 367.313 1461.13 368.127 1463.39 C 370.939 1461.96 371.113 1461.58 373.34 1459.45 C 376.991 1457.8 390.437 1447.1 394.938 1444.17 C 399.713 1449.62 400.944 1451.65 404.657 1457.9 C 396.404 1463.08 357.079 1490.25 351.787 1490.33 C 347.897 1488.25 346.361 1485.2 343.783 1481.51 C 346.462 1471.5 355.722 1449.31 359.781 1437.5 C 350.58 1442.84 339.209 1450.6 330.074 1456.47 C 326.628 1452.36 323.522 1447.58 320.463 1443.14 z"/>
<path transform="translate(0,0)" fill="rgb(56,66,87)" d="M 987.833 1847.28 C 988.143 1835.59 987.67 1790.93 993.079 1784 C 1003.82 1780.09 1019.89 1809.57 1025.69 1818.08 C 1027.07 1819.72 1026.21 1819.22 1028.24 1819.64 L 1028.41 1816.88 C 1028.57 1806.61 1029.14 1794.07 1028.75 1784.01 L 1043.15 1783.55 C 1042.94 1795.41 1044.46 1840.93 1040.76 1848.64 C 1039.2 1849.82 1037.88 1851.32 1035.56 1850.31 C 1026.72 1846.46 1008.75 1820.17 1003.93 1812.25 C 1003.75 1823.69 1002.88 1836.39 1002.91 1847.38 L 987.833 1847.28 z"/>
<path transform="translate(0,0)" fill="rgb(56,66,87)" d="M 660.11 1689.54 C 678.336 1691.88 692.433 1703.25 697.264 1721.05 C 692.676 1744.89 678.575 1749.89 657.307 1741.03 C 654.998 1739.67 654.989 1739.41 652.383 1739.16 C 650.04 1741.27 649.632 1741.49 648.388 1744.51 C 646.975 1747.92 645.533 1751.32 644.062 1754.71 C 639.253 1751.91 635.624 1749.48 631.056 1746.35 C 638.716 1728.03 650.453 1706.94 660.11 1689.54 z M 658.855 1726.51 C 663.392 1728.57 668.021 1730.81 672.711 1732.44 C 688.343 1725.49 682.033 1712.18 669.111 1706.46 C 665.092 1713.65 662.16 1719.01 658.855 1726.51 z"/>
<path transform="translate(0,0)" fill="rgb(56,66,87)" d="M 1406.81 1682.85 C 1413.29 1685.41 1438.03 1731.32 1440.91 1739.62 L 1429.48 1744.27 C 1420.4 1738.66 1401.78 1729.79 1391.57 1724.45 C 1395.24 1734.28 1401.91 1746.66 1406.27 1757.33 L 1395.13 1761.94 C 1389.75 1758.36 1367.57 1713.61 1366.25 1705.82 C 1374.25 1692.92 1405.37 1715.94 1415.33 1721.68 C 1412.21 1715.26 1398.27 1692.7 1398.63 1688.04 C 1400.6 1684.81 1403.2 1684.32 1406.81 1682.85 z"/>
<path transform="translate(0,0)" fill="rgb(56,66,87)" d="M 818.272 1753.48 C 836.013 1755.93 863.334 1762.35 861.678 1785.7 C 861.344 1791.04 858.776 1796 854.603 1799.35 C 847.102 1805.5 838.825 1805.71 829.862 1804.67 L 820.109 1802.74 L 815.236 1821.85 C 810.653 1820.27 805.865 1819.02 801.187 1817.71 C 805.876 1796.74 812.686 1774.43 818.272 1753.48 z M 823.075 1789.49 C 829.135 1790.59 836.636 1792.65 842.425 1790.96 C 855.437 1777.45 840.929 1772.55 829.169 1769.42 C 827.385 1775.48 825.199 1783.73 823.075 1789.49 z"/>
<path transform="translate(0,0)" fill="rgb(56,66,87)" d="M 1656.52 1449.46 C 1661.58 1451.04 1702.13 1481.45 1708.24 1486.46 L 1702.51 1498.23 C 1688.11 1495.93 1673.13 1496.7 1658.56 1497.11 C 1669.15 1504.62 1675.62 1510.4 1683.73 1520.37 C 1681.47 1524.75 1680.12 1527.28 1677.35 1531.33 C 1664.82 1520.29 1650.23 1510.72 1637.74 1499.56 C 1633.63 1495.89 1630.53 1493.05 1632.32 1487.57 C 1639.69 1480.98 1667.44 1482.44 1678.19 1482.63 C 1669.18 1475.01 1658.02 1467.79 1648.03 1461.42 C 1650.74 1457.2 1653.55 1453.48 1656.52 1449.46 z"/>
<path transform="translate(0,0)" fill="rgb(56,66,87)" d="M 1069.5 1781.14 C 1072.34 1780.93 1081.98 1780.11 1083.36 1782.09 C 1095.1 1799.02 1105.74 1827.13 1113.71 1845.85 C 1108.8 1846.62 1103.36 1846.83 1098.36 1847.15 C 1096.43 1843.07 1094.19 1836.15 1091.81 1832.7 L 1069.01 1834.14 C 1067.94 1839.05 1066.1 1844.07 1064.51 1848.87 C 1058.79 1848.5 1054.45 1848.76 1048.79 1849.03 C 1053.8 1833.37 1063.42 1793.66 1069.5 1781.14 z M 1084.19 1819.98 L 1085.83 1819.34 C 1085.45 1815.38 1079.92 1803.36 1077.27 1800.63 C 1076.13 1805.36 1072.98 1814.18 1074.07 1818.32 C 1076.29 1820.43 1076.17 1820.35 1080.33 1820.19 C 1081.61 1820.14 1082.9 1820.07 1084.19 1819.98 z"/>
<path transform="translate(0,0)" fill="rgb(56,66,87)" d="M 711.075 1712.71 C 723.922 1716.97 739.021 1724.27 751.276 1730.33 C 749.605 1733.7 745.933 1738.86 743.741 1742.14 C 734.883 1738.17 726.342 1734.94 717.502 1730.59 L 712.934 1742.27 C 722.952 1746.06 729.492 1748.63 739.166 1753.52 L 735.144 1765.81 C 726.035 1762.66 716.408 1758.72 707.369 1755.21 L 702.285 1767.78 C 712.033 1771.41 719.488 1774.4 729.034 1778.71 C 727.226 1782.33 725.571 1787.65 724.204 1791.59 C 712.012 1787.88 693.929 1779.44 682.041 1774.04 C 691.852 1754.7 701.083 1730.61 711.075 1712.71 z"/>
<path transform="translate(0,0)" fill="rgb(56,66,87)" d="M 1266.81 1744.04 C 1272.77 1743.51 1275.44 1744.85 1279.56 1749.15 C 1293.6 1763.81 1309.26 1780.76 1320.98 1797.24 L 1305.47 1802.19 C 1302.49 1798.51 1299.57 1794.78 1296.72 1791 C 1289.32 1794.1 1281.55 1796.96 1274.03 1799.84 L 1273.94 1813.92 L 1259.91 1817.96 C 1260.71 1803.75 1261.2 1789.53 1261.37 1775.3 C 1261.45 1767.23 1261.33 1757.62 1261.73 1749.47 C 1261.87 1746.65 1264.53 1745.54 1266.81 1744.04 z M 1285.74 1780.8 L 1286.66 1779.55 C 1284.46 1775.69 1278.78 1768.72 1275.08 1766.39 L 1275.01 1784.94 L 1285.74 1780.8 z"/>
<path transform="translate(0,0)" fill="rgb(56,66,87)" d="M 1714.77 1348.14 C 1730.1 1347.32 1764.81 1350.5 1779.36 1353.88 C 1777.56 1358.06 1776.15 1363.01 1774.76 1367.4 C 1770.3 1366.51 1765.58 1365.93 1761.06 1365.29 C 1758.55 1370.8 1749.93 1386.29 1752.62 1391.18 C 1754.78 1393.65 1757.28 1395.85 1759.69 1398.09 L 1753.38 1411.88 C 1736.42 1396.08 1722.5 1379.83 1708.13 1361.77 C 1710.32 1356.92 1712.34 1352.84 1714.77 1348.14 z M 1742.2 1374.17 C 1743.64 1370.85 1745.49 1366.88 1746.65 1363.53 C 1740.26 1363.13 1733.86 1362.88 1727.45 1362.76 C 1730.15 1366.55 1735.7 1375.9 1740.42 1376.27 L 1742.2 1374.17 z"/>
<path transform="translate(0,0)" fill="rgb(56,66,87)" d="M 218.784 1140.66 C 232.129 1144.36 284.266 1153.43 284.856 1168.3 C 282.607 1175.76 264.929 1186.17 257.671 1191.12 C 249.118 1197.14 240.209 1202.64 230.991 1207.59 L 227.052 1191.39 C 230.572 1189.66 234.158 1187.68 237.627 1185.82 C 236.378 1178.05 235.033 1170.3 233.592 1162.56 L 220.919 1158.67 L 218.784 1140.66 z M 249.787 1179.92 L 256.913 1175.26 C 259.717 1171.83 260.614 1172.01 260.635 1168.61 C 257.583 1165.68 252.085 1165.52 247.649 1163.62 C 248.262 1169.32 248.866 1174.23 249.787 1179.92 z"/>
<path transform="translate(0,0)" fill="rgb(56,66,87)" d="M 1622.96 1497.85 C 1625.52 1500.02 1629.43 1504.73 1631.81 1507.41 L 1613.78 1527.07 L 1621.92 1534.72 C 1626.95 1529.34 1636.59 1516.92 1644.71 1521.22 C 1647.88 1528.49 1637.81 1538.29 1633.51 1543.32 C 1636.25 1547.64 1637.91 1549.4 1641.29 1553.19 C 1647.57 1546.04 1655.71 1536.65 1663.04 1530.91 C 1665.72 1533.62 1668.41 1536.32 1671.12 1539 C 1668.87 1546.15 1647.14 1569.79 1641.56 1576.02 C 1627.48 1559.02 1610.23 1544.43 1593.7 1529.85 C 1599.26 1521.41 1614.65 1504.09 1622.96 1497.85 z"/>
<path transform="translate(0,0)" fill="rgb(56,66,87)" d="M 918.225 1773.82 C 931.2 1776.28 945.347 1775.69 957.541 1779.92 C 960.926 1781.1 957.839 1788.69 955.963 1790.84 C 948.998 1794.57 938.687 1790.58 930.445 1788.6 C 930.209 1793.47 929.694 1797.01 928.991 1801.77 L 954.053 1805.59 L 952.505 1817.83 C 947.253 1817.26 931.816 1814.4 927.441 1816.18 L 926.432 1819.28 C 925.942 1822.54 925.457 1824.66 925.75 1827.99 C 931.609 1829.9 948.278 1831.47 955.429 1832.43 L 953.757 1846.2 C 939.299 1844.36 924.279 1841.62 909.867 1840.61 C 909.902 1823.01 915.885 1793.22 918.225 1773.82 z"/>
<path transform="translate(0,0)" fill="rgb(56,66,87)" d="M 321.455 1365.22 C 344.219 1362.99 368.317 1376.02 363.509 1403.24 C 362.875 1406.83 361.514 1407.26 358.603 1409.02 C 348.573 1408.32 346.545 1358.66 318.354 1386.28 C 313.57 1390.97 313.443 1395.97 313.561 1402.26 C 319.778 1415.52 326.57 1410.75 337.724 1406.64 L 343.879 1418.89 C 336.608 1423 329.226 1426.19 321.626 1429.6 C 292.389 1411.6 287.484 1380.51 321.455 1365.22 z"/>
<path transform="translate(0,0)" fill="rgb(56,66,87)" d="M 1517.88 1606.6 C 1522.95 1607.78 1524.71 1611.15 1527.95 1615.3 C 1521.57 1620.68 1510.64 1627.8 1503.52 1632.74 L 1511.36 1641.91 C 1518.26 1636.85 1526.08 1630.67 1533.63 1626.94 C 1536.6 1631.14 1537.88 1634.09 1540.1 1638.67 C 1533.09 1642.11 1526.15 1647.85 1519.85 1652.67 C 1522.33 1656.21 1525.19 1659.54 1527.95 1662.89 C 1534.19 1658.13 1544.79 1649.14 1551.8 1647.4 C 1554.51 1650.05 1556.66 1651.51 1557.56 1655.13 C 1554.73 1661.32 1531.43 1677.43 1524.9 1681.88 C 1515 1670.65 1491.96 1642.35 1484.75 1630.75 C 1493.66 1622.81 1507.84 1613.52 1517.88 1606.6 z"/>
<path transform="translate(0,0)" fill="rgb(56,66,87)" d="M 1217.06 1759.13 C 1224.16 1758.74 1235.27 1759.46 1238.37 1767.34 C 1234.2 1776.79 1201.35 1770.88 1206.68 1793.34 C 1207.65 1798.83 1210.11 1806.18 1215.76 1808.98 C 1241.15 1821.56 1231.67 1796.48 1236.48 1788.65 C 1240.31 1786.48 1238.27 1787.11 1242.96 1787.06 C 1246.66 1789.69 1245.84 1789.97 1247.97 1794.91 C 1256.09 1810.01 1251.25 1819.48 1235.16 1825.04 C 1193.7 1839.39 1171.5 1771.03 1217.06 1759.13 z"/>
<path transform="translate(0,0)" fill="rgb(56,66,87)" d="M 1772.54 1166.68 L 1784.46 1169.87 C 1782.97 1179.77 1780.67 1188.2 1779.52 1198.65 L 1790.38 1200.11 C 1791.34 1192.57 1792.34 1180.56 1799.37 1176.27 C 1808.16 1177.62 1803.46 1197.44 1802.46 1203.45 L 1814.41 1206.36 C 1815.94 1198.6 1817.47 1185.21 1821.31 1178.26 C 1822.69 1175.74 1825.22 1176.29 1828.06 1176.18 C 1831.57 1177.33 1830.35 1176.25 1832.43 1178.76 C 1833.5 1186.49 1826.29 1213.27 1824.07 1222.55 C 1804.37 1219.39 1783.11 1214.2 1762.36 1210.76 C 1766.18 1197.82 1768.74 1180.61 1772.54 1166.68 z"/>
<path transform="translate(0,0)" fill="rgb(56,66,87)" d="M 238.939 999.424 C 247.434 1000.03 252.687 1000.82 259.779 1005.74 C 267.216 1010.91 272.278 1018.84 273.84 1027.76 C 275.542 1037.75 270.783 1052.5 259.239 1053.44 C 247.597 1047.34 264.262 1034.68 258.92 1024.46 C 253.363 1013.82 242.784 1012.54 232.539 1017.53 C 229.553 1020.19 225.076 1026.12 224.019 1029.81 C 221.562 1040.63 238.847 1039.79 243.082 1046.75 C 244.967 1049.18 243.457 1056.04 240.133 1056.76 C 211.711 1062.9 203.446 1030.36 216.987 1011.07 C 222.437 1003.31 229.599 1000.76 238.939 999.424 z"/>
<path transform="translate(0,0)" fill="rgb(56,66,87)" d="M 1137.27 1820.34 C 1139.34 1811.26 1145.47 1780.48 1149.56 1774.6 C 1154.28 1772.16 1157.54 1772.67 1162.66 1774.02 L 1162.21 1780.01 C 1160.56 1785.06 1157.94 1798.16 1156.59 1803.93 C 1153.64 1816.72 1150.32 1829.42 1146.62 1842.01 C 1142.38 1843.09 1138.23 1843.53 1133.9 1844.13 C 1125.38 1830.25 1106.04 1795.22 1100.56 1780.19 C 1105.39 1779.3 1110.74 1778.62 1115.64 1777.88 C 1121.88 1791.18 1130.43 1807.28 1137.27 1820.34 z"/>
<path transform="translate(0,0)" fill="rgb(56,66,87)" d="M 1825.83 912.197 C 1829.37 912.021 1832.17 911.418 1835.18 913.067 C 1839.31 919.771 1840.86 943.937 1841.81 953.227 C 1826.34 956.793 1800.05 958.498 1782.06 961.621 L 1777.29 919.48 C 1795.81 906.763 1789.13 936.363 1793.56 944.307 C 1796.47 945.474 1800.49 944.259 1803.78 943.646 C 1803.2 937.089 1801.11 922.078 1806.82 917.323 L 1808.98 918.119 C 1814.67 924.942 1815.16 933.606 1816.65 942.401 C 1820.44 942.277 1821.75 942.413 1825.42 941.203 C 1832.03 932.821 1820.32 925.221 1825.83 912.197 z"/>
<path transform="translate(0,0)" fill="rgb(56,66,87)" d="M 1454.64 1656.25 C 1459.09 1656.94 1462.32 1657.2 1465 1660.77 C 1463.88 1665.26 1454.85 1670.51 1450.69 1672.57 C 1426.24 1684.68 1454.64 1719.77 1471.91 1704.71 C 1477.36 1695.68 1467.5 1686.39 1472.86 1680.47 C 1481.72 1680.27 1484.23 1686.95 1488.45 1693.58 C 1490.02 1697.85 1490.61 1699.13 1488.44 1703.58 C 1466.46 1748.44 1412.9 1707.99 1431.85 1670.62 C 1435.51 1663.4 1446.92 1657.92 1454.64 1656.25 z"/>
<path transform="translate(0,0)" fill="rgb(56,66,87)" d="M 1764.56 1220.6 C 1768.48 1221.58 1768.29 1221.57 1771.58 1224.01 C 1776.25 1234.2 1763.05 1241.01 1769.05 1250.12 C 1778.67 1248.09 1790.19 1217.47 1806.88 1227.41 C 1824.43 1237.86 1813.76 1262.85 1805.83 1276.4 L 1793.83 1272.4 C 1796.94 1266.02 1806.51 1248.58 1800.27 1242.63 C 1791.66 1244.03 1778.58 1278.68 1760.39 1261.98 C 1747.62 1250.26 1754.65 1231.53 1764.56 1220.6 z"/>
<path transform="translate(0,0)" fill="rgb(56,66,87)" d="M 1553.6 1575.87 L 1557.5 1576.05 C 1561.07 1578.43 1562.25 1582.02 1564.25 1585.99 C 1557.22 1589.37 1542.35 1594.53 1543.05 1603.09 C 1551.3 1614.02 1582.06 1589.75 1589.59 1606.09 C 1598.27 1624.92 1583.69 1637.21 1568.4 1645.44 C 1565.6 1646.14 1566.68 1646.06 1563.8 1645.47 C 1560.17 1642.95 1558.78 1639.69 1556.5 1635.82 C 1565.64 1631.13 1572.12 1629.14 1578.49 1620.54 L 1577.65 1617.68 C 1569.68 1614.8 1553.91 1620.14 1545.11 1622.32 C 1519.32 1606.17 1531.19 1586.63 1553.6 1575.87 z"/>
<path transform="translate(0,0)" fill="rgb(56,66,87)" d="M 1588.45 1540.86 C 1592.1 1541.35 1593.39 1542.49 1596.09 1545.01 C 1599.51 1556.67 1573.69 1559.5 1580.59 1571.22 C 1589.8 1574.43 1615.14 1553.2 1624.64 1568.26 C 1636.35 1586.81 1620.75 1599.9 1606.56 1609.57 C 1602.5 1609.78 1598.14 1606.61 1595.94 1603.38 C 1596.25 1595.27 1608.57 1595.25 1614.3 1586.13 C 1614.47 1583.74 1614.87 1582.55 1612.63 1580.2 C 1603.7 1572.62 1591.4 1589.08 1581.55 1587.54 C 1572.29 1586.16 1563.93 1570.31 1566.5 1561.82 C 1568.84 1554.09 1581.94 1544.86 1588.45 1540.86 z"/>
<path transform="translate(0,0)" fill="rgb(56,66,87)" d="M 507.293 1574.75 C 517.237 1579.67 532.783 1596.05 541.019 1604.32 L 531.923 1611.9 C 524.567 1607.06 516.682 1600.53 509.905 1594.93 C 506.557 1599.1 503.143 1603.22 499.663 1607.28 L 517.821 1622.61 L 511.115 1629.37 L 509.384 1630.53 C 503.499 1629.88 495.621 1621.02 490.846 1616.49 C 486.1 1622.75 479 1629.45 473.151 1634.68 C 470.224 1631.56 467.249 1628.04 464.407 1624.8 C 476.44 1608.85 493.735 1589.55 507.293 1574.75 z"/>
<path transform="translate(0,0)" fill="rgb(56,66,87)" d="M 1785.91 1046.25 C 1793.3 1049.35 1839.56 1071.94 1843.6 1076.44 C 1845.03 1081.33 1845.18 1084.15 1843.08 1088.84 C 1836.78 1093.56 1808.01 1100.81 1797.74 1104.51 C 1792.76 1106.72 1786.68 1109.98 1781.71 1112.47 C 1782.27 1105.97 1782.77 1099.47 1783.19 1092.96 C 1794.94 1088.55 1811 1084.55 1823.42 1080.96 C 1814.85 1075.9 1794.21 1065.15 1785.25 1061.79 C 1785.7 1057.04 1785.74 1051.11 1785.91 1046.25 z"/>
<path transform="translate(0,0)" fill="rgb(56,66,87)" d="M 1806.72 860.151 C 1808.12 860.018 1809.52 859.922 1810.93 859.863 C 1834.03 859.06 1839.58 890.504 1825.84 902.813 C 1821.87 903.86 1823.82 903.904 1819.81 902.488 C 1816.57 896.76 1825.75 875.043 1813.54 876.417 C 1810.16 879.21 1805.51 896.944 1797.95 907.007 C 1772.46 918.516 1759.3 871.873 1778.48 868.851 C 1789.8 874.431 1777 891.326 1788.8 894.25 C 1798.48 887.994 1790.28 868.639 1806.72 860.151 z"/>
<path transform="translate(0,0)" fill="rgb(56,66,87)" d="M 1828.43 964.389 C 1844.21 968.503 1847.8 990.391 1841.41 1003.27 C 1837.6 1010.89 1830.73 1016.54 1822.51 1018.8 C 1801.05 1024.82 1788.01 1011.34 1783.43 991.778 C 1783.65 983.301 1783.14 969.349 1794.67 967.697 C 1800.72 974.017 1792.78 1014.89 1821.84 1002.86 C 1838.31 996.031 1824.08 977.759 1828.43 964.389 z"/>
<path transform="translate(0,0)" fill="rgb(56,66,87)" d="M 1335.26 1717.93 C 1338.13 1719.11 1340.9 1725.76 1342.41 1728.74 C 1337.39 1731.74 1332.21 1734.31 1327.01 1736.99 C 1331.4 1750.14 1342.36 1773.34 1348.09 1786.33 L 1334.53 1791.57 L 1329.31 1780.55 C 1323.79 1768.3 1317.71 1755.37 1312.77 1742.95 C 1306.97 1744.46 1299.59 1747.98 1295.12 1743.44 C 1292.96 1734.9 1300.93 1731.97 1307.74 1729.22 C 1316.95 1725.49 1326.1 1721.78 1335.26 1717.93 z"/>
<path transform="translate(0,0)" fill="rgb(56,66,87)" d="M 1687.42 1402.73 L 1695.54 1410.76 C 1693.16 1416.27 1689.81 1422.01 1686.9 1427.33 C 1698.02 1433.62 1719.76 1446.44 1729.17 1454.03 L 1722.51 1466.18 L 1706.54 1456.77 L 1679.42 1439.47 C 1677.16 1444.93 1675.05 1448.4 1672.11 1453.45 L 1660.35 1445.04 C 1665.68 1435.89 1680.51 1409.03 1687.42 1402.73 z"/>
<path transform="translate(0,0)" fill="rgb(56,66,87)" d="M 1785.96 1301.37 C 1790.96 1302.46 1794.05 1303.69 1798.76 1305.47 C 1796.54 1316.04 1787.87 1336.97 1783.78 1347.57 C 1769.71 1341.15 1755.09 1335.45 1740.71 1329.69 C 1736.11 1327.78 1730.92 1325.07 1726.39 1322.85 L 1730.66 1307.57 C 1746.15 1313.5 1761.3 1320.97 1776.92 1327.16 C 1780.24 1319.17 1783.18 1309.66 1785.96 1301.37 z"/>
<path transform="translate(0,0)" fill="rgb(56,66,87)" d="M 872.046 1766.2 C 877.084 1767.47 881.007 1767.97 886.102 1768.68 C 882.726 1786.47 880.362 1804.22 876.746 1822.02 C 886.189 1823.33 895.613 1824.78 905.014 1826.36 L 899.909 1838.91 C 893.474 1839.31 867.448 1833.77 859.61 1832.16 C 861.121 1817.55 868.617 1781.16 872.046 1766.2 z"/>
<path transform="translate(0,0)" fill="rgb(56,66,87)" d="M 263.044 1086.32 C 266.503 1085.99 268.637 1085.47 271.948 1086.55 C 276.876 1091.19 278.06 1126.57 279.349 1135.71 C 275.465 1135.98 270.45 1136.9 266.511 1137.5 C 265.042 1131.49 264.883 1124.63 264.484 1118.4 C 258.181 1119.69 251.838 1120.49 245.467 1121.39 C 236.068 1122.87 226.65 1124.23 217.216 1125.46 C 217.004 1120.51 216.281 1115.48 215.68 1110.55 C 228.138 1108.3 251.006 1106.52 263.924 1105.8 C 263.092 1100.5 261.02 1090.8 263.044 1086.32 z"/>
<path transform="translate(0,0)" fill="rgb(56,66,87)" d="M 287.671 1202.16 L 290.489 1202.21 C 292.951 1204.57 294.047 1211.41 295.192 1215.04 C 283.805 1219.3 262.282 1224.1 249.946 1226.45 C 253.205 1241.01 257.693 1248.76 245.915 1259.51 C 238.74 1253.05 234.748 1225.42 232.479 1215 C 250.569 1211.14 269.562 1206.39 287.671 1202.16 z"/>
<path transform="translate(0,0)" fill="rgb(56,66,87)" d="M 628.362 552.763 C 657.894 557.964 637.296 576.163 635.582 589.007 C 633.319 605.966 635.748 624.665 633.619 642.645 L 631.97 642.965 L 630.356 641.417 C 626.374 629.107 628.504 611.297 626.718 597.359 C 624.476 579.855 610.795 563.935 628.362 552.763 z"/>
<path transform="translate(0,0)" fill="rgb(56,66,87)" d="M 409.898 1466.91 C 412.487 1468.48 417.805 1475.29 420.111 1477.96 C 402.532 1488.71 387.011 1503.5 367.655 1515.02 C 365.576 1513.98 359.84 1506.25 357.941 1503.89 C 368.939 1494.06 397.243 1474.98 409.898 1466.91 z"/>
<path transform="translate(0,0)" fill="rgb(56,66,87)" d="M 1695.57 1386.68 C 1714.18 1396.18 1731.46 1406.97 1748.82 1418.55 L 1742.63 1431.35 C 1728.3 1426.42 1703.81 1407.64 1687.45 1400.5 C 1689.88 1395.85 1692.84 1391.19 1695.57 1386.68 z"/>
<path transform="translate(0,0)" fill="rgb(56,66,87)" d="M 1163.95 1773.58 C 1167.02 1770.29 1173.47 1769.86 1178.2 1769.02 C 1183.85 1790.28 1188.31 1811.85 1191.55 1833.62 L 1177.81 1835.44 C 1173.38 1815.92 1169.16 1795.66 1164.58 1776.29 L 1163.95 1773.58 z"/>
<path transform="translate(0,0)" fill="rgb(56,66,87)" d="M 1352.93 1710.98 C 1358.38 1713.81 1379.14 1760.47 1382.38 1768.99 L 1370.83 1774.12 C 1365.05 1771.5 1345.06 1723.79 1341.43 1715.42 C 1345.44 1713.63 1348.81 1712.44 1352.93 1710.98 z"/>
<path transform="translate(0,0)" fill="rgb(56,66,87)" d="M 331.16 1334.85 C 335.504 1336.49 337.179 1343.06 338.874 1347.27 C 324.645 1354.92 299.533 1365.48 284.344 1372.4 C 280.53 1367.61 278.973 1363.61 276.472 1358.11 C 293.302 1350.4 313.818 1342.3 331.16 1334.85 z"/>
<path transform="translate(0,0)" fill="rgb(56,66,87)" d="M 513.478 548.348 C 515.375 554.301 518.257 567.346 518.167 573.645 C 518.039 582.569 516.869 584.26 510.857 590.002 C 511.531 601.241 512.157 609.979 511.436 621.249 C 510.857 630.751 509.089 642.011 507.828 651.58 C 502.015 627.417 503.162 613.562 503.147 589.229 L 496.42 579.53 C 496.745 570.342 496.875 562.813 498.344 553.683 C 501.537 557.959 499.87 569.262 506.391 570.057 C 512.15 565.835 512.263 555.903 513.478 548.348 z"/>
<path transform="translate(0,0)" fill="rgb(56,66,87)" d="M 212.423 970.899 C 221.867 973.08 260.268 975.745 273.185 977.468 L 271.779 991.143 C 251.52 990.019 232.877 988.133 212.468 987.794 C 212.076 981.419 212.185 977.244 212.423 970.899 z"/>
<path transform="translate(0,0)" fill="rgb(56,66,87)" d="M 1786.54 1028.38 C 1805.66 1027.9 1825.91 1028.87 1845.25 1029.02 C 1845.06 1033.83 1845.11 1038.99 1845.06 1043.84 C 1826.64 1043.17 1804.03 1044.81 1786.04 1042.66 C 1785.79 1037.59 1785.18 1033.23 1786.54 1028.38 z"/>
<path transform="translate(0,0)" fill="rgb(56,66,87)" d="M 261.168 1065.43 L 272.107 1065.03 C 272.01 1070 272.342 1073.68 272.739 1078.6 C 260.486 1080.7 237.695 1081.06 223.761 1082.21 L 213.901 1083.2 C 213.76 1078.24 213.149 1072.47 212.746 1067.46 C 228.638 1066.1 245.076 1066.28 261.168 1065.43 z"/>
<path transform="translate(0,0)" fill="rgb(56,66,87)" d="M 1015.39 1726.99 C 1025.33 1726.87 1036.05 1727.45 1046.04 1727.81 C 1045.9 1733.58 1047.62 1742.42 1045.75 1746.07 C 1035.1 1745.95 1023.5 1746.31 1012.79 1746.46 C 1013.56 1739.96 1014.43 1733.46 1015.39 1726.99 z"/>
<path transform="translate(0,0)" fill="rgb(254,254,254)" fill-opacity="0.0196078" d="M 370.106 1456.25 L 373.34 1459.45 C 371.113 1461.58 370.939 1461.96 368.127 1463.39 C 367.313 1461.13 368.863 1459.23 370.106 1456.25 z"/>
<path transform="translate(0,0)" fill="rgb(254,254,254)" fill-opacity="0.105882" d="M 1163.95 1773.58 L 1164.58 1776.29 L 1163.86 1779.32 L 1162.21 1780.01 L 1162.66 1774.02 L 1163.95 1773.58 z"/>
<path transform="translate(0,0)" fill="rgb(254,254,254)" fill-opacity="0.0470588" d="M 1025.69 1818.08 L 1028.41 1816.88 L 1028.24 1819.64 C 1026.21 1819.22 1027.07 1819.72 1025.69 1818.08 z"/>
</svg>